<svg width="310" height="310" viewBox="0 0 310 310" fill="none" xmlns="http://www.w3.org/2000/svg">
<path d="M174.4 70.3504H136.01L120.21 0.360352H190.19L174.4 70.3504Z" fill="url(#paint0_linear_374_388)"/>
<path d="M136.01 239.73H174.4L190.19 309.72H120.21L136.01 239.73Z" fill="url(#paint1_linear_374_388)"/>
<path d="M239.89 174.231V135.841L309.88 120.051V190.031L239.89 174.231Z" fill="url(#paint2_linear_374_388)"/>
<path d="M70.5095 135.841V174.231L0.519531 190.031V120.051L70.5095 135.841Z" fill="url(#paint3_linear_374_388)"/>
<path d="M228.66 108.72L201.52 81.5799L239.83 20.9199L289.32 70.4099L228.66 108.72Z" fill="url(#paint4_linear_374_388)"/>
<path d="M81.7391 201.351L108.889 228.501L70.5691 289.161L21.0791 239.671L81.7391 201.351Z" fill="url(#paint5_linear_374_388)"/>
<path d="M81.7391 108.72L108.889 81.5799L70.5691 20.9199L21.0791 70.4099L81.7391 108.72Z" fill="url(#paint6_linear_374_388)"/>
<path d="M228.66 201.351L201.52 228.501L239.83 289.161L289.32 239.671L228.66 201.351Z" fill="url(#paint7_linear_374_388)"/>
<path d="M132.18 142.261V167.821L85.5898 178.331V131.751L132.18 142.261Z" fill="#12DEAC"/>
<path d="M178.22 142.261V167.821L224.81 178.331V131.751L178.22 142.261Z" fill="#12DEAC"/>
<path d="M167.98 132.021H142.42L131.91 85.4307H178.49L167.98 132.021Z" fill="#12DEAC"/>
<path d="M167.98 178.061H142.42L131.91 224.651H178.49L167.98 178.061Z" fill="#12DEAC"/>
<path d="M166.18 144.061H144.22V166.021H166.18V144.061Z" fill="#12DEAC"/>
<defs>
<linearGradient id="paint0_linear_374_388" x1="155.2" y1="0.360352" x2="155.2" y2="70.3504" gradientUnits="userSpaceOnUse">
<stop stopColor="#0C84B8"/>
<stop offset="1" stopColor="#12DEAC"/>
</linearGradient>
<linearGradient id="paint1_linear_374_388" x1="-48" y1="309.72" x2="-47" y2="239.73" gradientUnits="userSpaceOnUse">
<stop stopColor="#0C84B8"/>
<stop offset="1" stopColor="#12DEAC"/>
</linearGradient>
<linearGradient id="paint2_linear_374_388" x1="309.88" y1="155.041" x2="239.89" y2="155.041" gradientUnits="userSpaceOnUse">
<stop stopColor="#0C84B8"/>
<stop offset="1" stopColor="#12DEAC"/>
</linearGradient>
<linearGradient id="paint3_linear_374_388" x1="0.519531" y1="155.041" x2="70.5095" y2="155.041" gradientUnits="userSpaceOnUse">
<stop stopColor="#0C84B8"/>
<stop offset="1" stopColor="#12DEAC"/>
</linearGradient>
<linearGradient id="paint4_linear_374_388" x1="264.58" y1="45.6699" x2="215.09" y2="95.1499" gradientUnits="userSpaceOnUse">
<stop stopColor="#0C84B8"/>
<stop offset="1" stopColor="#12DEAC"/>
</linearGradient>
<linearGradient id="paint5_linear_374_388" x1="45.8291" y1="264.411" x2="95.3091" y2="214.931" gradientUnits="userSpaceOnUse">
<stop stopColor="#0C84B8"/>
<stop offset="1" stopColor="#12DEAC"/>
</linearGradient>
<linearGradient id="paint6_linear_374_388" x1="45.8291" y1="45.6699" x2="95.3091" y2="95.1499" gradientUnits="userSpaceOnUse">
<stop stopColor="#0C84B8"/>
<stop offset="1" stopColor="#12DEAC"/>
</linearGradient>
<linearGradient id="paint7_linear_374_388" x1="264.58" y1="264.411" x2="215.09" y2="214.931" gradientUnits="userSpaceOnUse">
<stop stopColor="#0C84B8"/>
<stop offset="1" stopColor="#12DEAC"/>
</linearGradient>
</defs>
</svg>
